<svg xmlns="http://www.w3.org/2000/svg" viewBox="0 0 128 128">
  <defs>
    <linearGradient id="a" x1="26" y1="16" x2="102" y2="104" gradientUnits="userSpaceOnUse">
      <stop offset="0" stop-color="#5fa96f"/>
      <stop offset="1" stop-color="#1f5a42"/>
    </linearGradient>
  </defs>
  <rect width="128" height="128" rx="24" fill="#edf5ef"/>
  <path d="M30 57c-2-18 14-34 34-34 25 0 43 18 43 41 0 22-18 41-43 41-18 0-33-11-37-28 15 6 36 4 52-7-18 2-36-2-49-13z" fill="url(#a)"/>
  <path d="M58 64h16l5 44H52l6-44z" fill="#c37535"/>
  <path d="M66 59c-13 12-26 20-42 24M66 59c11 18 22 29 39 36" fill="none" stroke="#cce8d1" stroke-width="6" stroke-linecap="round"/>
</svg>
