<svg xmlns="http://www.w3.org/2000/svg" viewBox="0 0 520 126" role="img" aria-labelledby="logoTitle logoDesc">
  <title id="logoTitle">OAKHIMEDES</title>
  <desc id="logoDesc">Logotipo do projeto OAKHIMEDES com sobreiro, folha e rede de dados.</desc>
  <defs>
    <linearGradient id="canopy" x1="22" y1="22" x2="98" y2="96" gradientUnits="userSpaceOnUse">
      <stop offset="0" stop-color="#5fa96f"/>
      <stop offset="1" stop-color="#1f5a42"/>
    </linearGradient>
    <linearGradient id="cork" x1="58" y1="54" x2="72" y2="112" gradientUnits="userSpaceOnUse">
      <stop offset="0" stop-color="#d58b43"/>
      <stop offset="1" stop-color="#944733"/>
    </linearGradient>
  </defs>

  <g>
    <circle cx="63" cy="63" r="54" fill="#edf5ef"/>
    <path d="M34 55c-1-16 13-31 31-31 22 0 37 16 37 36 0 19-15 36-37 36-17 0-30-10-33-25 13 5 31 4 45-6-16 2-31-1-43-10z" fill="url(#canopy)"/>
    <path d="M66 54c-13 10-24 16-38 20" fill="none" stroke="#b9dfc0" stroke-width="5" stroke-linecap="round"/>
    <path d="M66 54c10 16 19 25 33 31" fill="none" stroke="#b9dfc0" stroke-width="5" stroke-linecap="round"/>
    <path d="M59 60h16l4 50H54l5-50z" fill="url(#cork)"/>
    <path d="M63 69c6 6 11 10 18 12M60 83c-6 4-12 7-20 8M70 94c8 0 16-2 23-6" fill="none" stroke="#173d2f" stroke-width="3" stroke-linecap="round"/>
    <circle cx="41" cy="91" r="5" fill="#173d2f"/>
    <circle cx="94" cy="87" r="5" fill="#173d2f"/>
    <circle cx="82" cy="81" r="4" fill="#c37535"/>
  </g>

  <g fill="#102a22">
    <text x="136" y="62" font-family="Segoe UI, Arial, sans-serif" font-size="42" font-weight="900" letter-spacing="0">OAKHIMEDES</text>
    <text x="139" y="91" font-family="Segoe UI, Arial, sans-serif" font-size="16" font-weight="700" letter-spacing="0" fill="#4b9460">cork oak climate adaptation</text>
  </g>
</svg>
