<svg xmlns="http://www.w3.org/2000/svg" viewBox="0 0 820 560" role="img" aria-labelledby="systemTitle systemDesc">
  <title id="systemTitle">Sistema de investigação OAKHIMEDES</title>
  <desc id="systemDesc">Visualização de um sobreiro monitorizado por drones, sensores, dados ambientais e análise computacional.</desc>
  <defs>
    <linearGradient id="sky" x1="0" x2="0" y1="0" y2="560" gradientUnits="userSpaceOnUse">
      <stop offset="0" stop-color="#e8f2f5"/>
      <stop offset="1" stop-color="#f6f8f5"/>
    </linearGradient>
    <linearGradient id="hillA" x1="0" x2="820" y1="290" y2="470" gradientUnits="userSpaceOnUse">
      <stop offset="0" stop-color="#8bb574"/>
      <stop offset="1" stop-color="#d7a258"/>
    </linearGradient>
    <linearGradient id="trunk" x1="396" x2="434" y1="256" y2="456" gradientUnits="userSpaceOnUse">
      <stop offset="0" stop-color="#c37535"/>
      <stop offset="1" stop-color="#7c3d2c"/>
    </linearGradient>
    <filter id="shadow" x="-20%" y="-20%" width="140%" height="140%">
      <feDropShadow dx="0" dy="18" stdDeviation="18" flood-color="#102a22" flood-opacity=".18"/>
    </filter>
  </defs>

  <rect width="820" height="560" rx="8" fill="url(#sky)"/>
  <path d="M0 374c110-72 192-78 309-32 119 47 187 61 300 10 89-40 144-50 211-13v221H0z" fill="url(#hillA)" opacity=".55"/>
  <path d="M0 432c135-63 246-64 363-20 104 39 192 28 297-13 62-24 111-24 160 2v159H0z" fill="#ecdfb6"/>

  <g filter="url(#shadow)">
    <path d="M407 236c-53-6-89-35-94-79-5-43 31-78 76-70 12-36 54-58 96-42 37 14 52 47 44 77 43 11 67 50 55 87-13 43-63 58-108 45-15 24-42 31-69 28-21-3-37-13-48-29 14 0 32-4 48-17z" fill="#245b43"/>
    <path d="M356 152c40 27 91 39 156 34M386 112c18 34 40 64 81 91M489 90c-17 45-44 78-91 106" fill="none" stroke="#84bf80" stroke-width="10" stroke-linecap="round" opacity=".75"/>
    <path d="M401 245h45l17 218h-83z" fill="url(#trunk)"/>
    <path d="M412 286c-20 23-45 38-77 45M438 317c29 18 61 27 98 27M420 372c-29 20-61 30-95 30" fill="none" stroke="#5a3026" stroke-width="7" stroke-linecap="round" opacity=".8"/>
    <rect x="383" y="330" width="82" height="24" rx="8" fill="#173d2f"/>
    <circle cx="399" cy="342" r="6" fill="#77c486"/>
    <rect x="412" y="338" width="35" height="8" rx="4" fill="#d9eee0"/>
  </g>

  <g fill="none" stroke="#245b43" stroke-width="3" stroke-linecap="round" opacity=".5">
    <path d="M466 342c80-12 135-47 168-104"/>
    <path d="M384 342c-84-7-148-38-193-94"/>
    <path d="M427 464c0 34 17 58 52 72"/>
  </g>

  <g>
    <rect x="606" y="154" width="128" height="96" rx="8" fill="#ffffff" stroke="#d8e2dc"/>
    <path d="M630 214l21-25 18 13 18-31 24 43" fill="none" stroke="#c37535" stroke-width="8" stroke-linecap="round" stroke-linejoin="round"/>
    <circle cx="632" cy="178" r="7" fill="#4b9460"/>
    <circle cx="704" cy="178" r="7" fill="#9a4937"/>
  </g>

  <g>
    <rect x="87" y="158" width="128" height="96" rx="8" fill="#ffffff" stroke="#d8e2dc"/>
    <path d="M122 223V182M151 223v-56M180 223v-34" stroke="#4b9460" stroke-width="12" stroke-linecap="round"/>
    <path d="M112 224h82" stroke="#173d2f" stroke-width="5" stroke-linecap="round"/>
  </g>

  <g transform="translate(124 86)">
    <path d="M0 16h78" stroke="#173d2f" stroke-width="6" stroke-linecap="round"/>
    <path d="M39 0v32" stroke="#173d2f" stroke-width="6" stroke-linecap="round"/>
    <circle cx="-14" cy="16" r="12" fill="none" stroke="#173d2f" stroke-width="5"/>
    <circle cx="92" cy="16" r="12" fill="none" stroke="#173d2f" stroke-width="5"/>
    <rect x="27" y="9" width="24" height="14" rx="4" fill="#c37535"/>
  </g>

  <g>
    <rect x="522" y="428" width="160" height="74" rx="8" fill="#102a22"/>
    <path d="M548 476c12-24 27-25 42-2s31 21 47-5 30-24 43 1" fill="none" stroke="#8ed49a" stroke-width="7" stroke-linecap="round"/>
    <circle cx="552" cy="454" r="5" fill="#c37535"/>
    <circle cx="572" cy="454" r="5" fill="#e8f2f5"/>
    <circle cx="592" cy="454" r="5" fill="#4b9460"/>
  </g>
</svg>
